# xmcd
#
# Track frame offsets: 
#        150
#        15192
#        33463
#        47694
#        65266
#        84758
#        98039
#        115121
#        129632
#        145123
#        166654
#        182995
#        199706
#        213477
#
# Disc length: 3114 seconds
#
# Revision: 0
# Processed by: cddbd v1.5.2PL0 Copyright (c) Steve Scherf et al.
# Submitted via: ExactAudioCopy v0.99pb5
#
DISCID=af0c280e
DTITLE=Tim O'Brien - Chicken and Egg
DYEAR=2010
DGENRE=Bluegrass
TTITLE0=You Ate The Apple
TTITLE1=My Girl's Waiting For Me (River Driving)
TTITLE2=Suzanna
TTITLE3=Sinner
TTITLE4=Gonna Try To Make Her Stay
TTITLE5=The Sun Jumped Up
TTITLE6=All I Want
TTITLE7=Workin'
TTITLE8=No Way To Stop The Flow
TTITLE9=Not Afraid O' Dyin'
TTITLE10=Letter In The Mail
TTITLE11=Old Joe
TTITLE12=Mother Mary
TTITLE13=Space Between The Lines
EXTD=
EXTT0=
EXTT1=
EXTT2=
EXTT3=
EXTT4=
EXTT5=
EXTT6=
EXTT7=
EXTT8=
EXTT9=
EXTT10=
EXTT11=
EXTT12=
EXTT13=
PLAYORDER=
